<svg width="377.021" height="377.021" xmlns="http://www.w3.org/2000/svg" xml:space="preserve" version="1.1">

 <g>
  <title>Layer 1</title>
  <g id="svg_1">
   <path fill="#ffd86e" id="svg_2" d="m279.522,36.163l-22.086,0l0,-16.163c0,-11.028 -8.972,-20 -20,-20l-97.85,0c-11.028,0 -20,8.972 -20,20l0,16.163l-22.086,0c-16.542,0 -30,13.458 -30,30l0,280.858c0,16.542 13.458,30 30,30l182.022,0c16.542,0 30,-13.458 30,-30l0,-280.858c0,-16.542 -13.458,-30 -30,-30zm-182.022,310.858l0,-280.858l182.022,0l0.003,280.858l-182.025,0z"/>
   <rect fill="#ffd86e" id="svg_3" height="59.663" width="131.85" y="266.5" x="122.586"/>
  </g>
  <g id="svg_4"/>
  <g id="svg_5"/>
  <g id="svg_6"/>
  <g id="svg_7"/>
  <g id="svg_8"/>
  <g id="svg_9"/>
  <g id="svg_10"/>
  <g id="svg_11"/>
  <g id="svg_12"/>
  <g id="svg_13"/>
  <g id="svg_14"/>
  <g id="svg_15"/>
  <g id="svg_16"/>
  <g id="svg_17"/>
  <g id="svg_18"/>
 </g>
</svg>