<svg width="384.00000000000006" height="384.00000000000006" xmlns="http://www.w3.org/2000/svg" xml:space="preserve" version="1.1">

 <g>
  <title>Layer 1</title>
  <g id="svg_1">
   <g id="svg_2">
    <path fill="#ffd86e" id="svg_3" d="m101.488,78.864l-22.624,-22.624c-6.24,-6.248 -16.384,-6.248 -22.624,0c-6.248,6.248 -6.248,16.376 0,22.624l22.624,22.624c3.12,3.128 7.216,4.688 11.312,4.688c4.096,0 8.192,-1.56 11.312,-4.688c6.248,-6.248 6.248,-16.376 0,-22.624z"/>
   </g>
  </g>
  <g id="svg_4">
   <g id="svg_5">
    <path fill="#ffd86e" id="svg_6" d="m48,176l-32,0c-8.832,0 -16,7.168 -16,16c0,8.832 7.168,16 16,16l32,0c8.832,0 16,-7.168 16,-16c0,-8.832 -7.168,-16 -16,-16z"/>
   </g>
  </g>
  <g id="svg_7">
   <g id="svg_8">
    <path fill="#ffd86e" id="svg_9" d="m101.488,282.512c-6.24,-6.248 -16.384,-6.248 -22.624,0l-22.624,22.624c-6.248,6.248 -6.248,16.376 0,22.624c3.12,3.128 7.216,4.688 11.312,4.688s8.192,-1.56 11.312,-4.688l22.624,-22.624c6.248,-6.248 6.248,-16.376 0,-22.624z"/>
   </g>
  </g>
  <g id="svg_10">
   <g id="svg_11">
    <path fill="#ffd86e" id="svg_12" d="m192,320c-8.832,0 -16,7.168 -16,16l0,32c0,8.832 7.168,16 16,16c8.832,0 16,-7.168 16,-16l0,-32c0,-8.832 -7.168,-16 -16,-16z"/>
   </g>
  </g>
  <g id="svg_13">
   <g id="svg_14">
    <path fill="#ffd86e" id="svg_15" d="m327.76,305.136l-22.624,-22.624c-6.24,-6.248 -16.384,-6.248 -22.624,0c-6.248,6.248 -6.248,16.376 0,22.624l22.624,22.624c3.12,3.128 7.216,4.688 11.312,4.688s8.192,-1.56 11.312,-4.688c6.248,-6.248 6.248,-16.376 0,-22.624z"/>
   </g>
  </g>
  <g id="svg_16">
   <g id="svg_17">
    <path fill="#ffd86e" id="svg_18" d="m368,176l-32,0c-8.832,0 -16,7.168 -16,16c0,8.832 7.168,16 16,16l32,0c8.832,0 16,-7.168 16,-16c0,-8.832 -7.168,-16 -16,-16z"/>
   </g>
  </g>
  <g id="svg_19">
   <g id="svg_20">
    <path fill="#ffd86e" id="svg_21" d="m327.76,56.24c-6.24,-6.248 -16.384,-6.248 -22.624,0l-22.624,22.624c-6.248,6.248 -6.248,16.376 0,22.624c3.12,3.128 7.216,4.688 11.312,4.688s8.192,-1.56 11.312,-4.688l22.624,-22.624c6.248,-6.248 6.248,-16.376 0,-22.624z"/>
   </g>
  </g>
  <g id="svg_22">
   <g id="svg_23">
    <path fill="#ffd86e" id="svg_24" d="m192,0c-8.832,0 -16,7.168 -16,16l0,32c0,8.832 7.168,16 16,16c8.832,0 16,-7.168 16,-16l0,-32c0,-8.832 -7.168,-16 -16,-16z"/>
   </g>
  </g>
  <g id="svg_25">
   <g id="svg_26">
    <path fill="#ffd86e" id="svg_27" d="m192,88c-57.344,0 -104,46.656 -104,104s46.656,104 104,104s104,-46.656 104,-104s-46.656,-104 -104,-104zm0,176c-39.696,0 -72,-32.304 -72,-72s32.304,-72 72,-72s72,32.304 72,72s-32.304,72 -72,72z"/>
   </g>
  </g>
  <g id="svg_28"/>
  <g id="svg_29"/>
  <g id="svg_30"/>
  <g id="svg_31"/>
  <g id="svg_32"/>
  <g id="svg_33"/>
  <g id="svg_34"/>
  <g id="svg_35"/>
  <g id="svg_36"/>
  <g id="svg_37"/>
  <g id="svg_38"/>
  <g id="svg_39"/>
  <g id="svg_40"/>
  <g id="svg_41"/>
  <g id="svg_42"/>
 </g>
</svg>