<svg width="448.023" height="448.023" xmlns="http://www.w3.org/2000/svg" xml:space="preserve" version="1.1">

 <g>
  <title>Layer 1</title>
  <g id="svg_1">
   <g id="svg_2">
    <path fill="#ffd86e" id="svg_3" d="m342.94,1.591c-5.6,-2.688 -12.128,-1.92 -16.928,1.92l-127.68,102.08c-6.912,5.504 -8,15.584 -2.496,22.496c5.536,6.944 15.584,8.064 22.496,2.528l101.664,-81.312l0,196.48c0,8.864 7.168,16 16,16c8.832,0 16,-7.168 16,-16l0,-229.76c0,-6.144 -3.52,-11.744 -9.056,-14.432z"/>
   </g>
  </g>
  <g id="svg_4">
   <g id="svg_5">
    <path fill="#ffd86e" id="svg_6" d="m443.324,420.727l-95.968,-95.968l-0.032,-0.032l-160,-160l-0.032,-0.032l-31.968,-31.968l-0.032,-0.032l-127.968,-128c-6.24,-6.24 -16.384,-6.24 -22.624,0c-6.24,6.24 -6.24,16.384 0,22.624l100.672,100.704l-9.376,0c-17.952,0 -32,14.048 -32,32l0,128c0,17.952 14.048,32 32,32l74.368,0l155.616,124.512c2.912,2.304 6.464,3.488 10.016,3.488c2.336,0 4.704,-0.512 6.944,-1.568c5.536,-2.688 9.056,-8.288 9.056,-14.432l0,-57.376l68.672,68.672c3.136,3.136 7.232,4.704 11.328,4.704s8.192,-1.568 11.328,-4.672c6.24,-6.24 6.24,-16.384 0,-22.624zm-283.328,-132.704l-64,0l0,-128l41.376,0l22.624,22.624l0,105.376zm160,110.688l-128,-102.4l0,-81.664l128,128l0,56.064z"/>
   </g>
  </g>
  <g id="svg_7"/>
  <g id="svg_8"/>
  <g id="svg_9"/>
  <g id="svg_10"/>
  <g id="svg_11"/>
  <g id="svg_12"/>
  <g id="svg_13"/>
  <g id="svg_14"/>
  <g id="svg_15"/>
  <g id="svg_16"/>
  <g id="svg_17"/>
  <g id="svg_18"/>
  <g id="svg_19"/>
  <g id="svg_20"/>
  <g id="svg_21"/>
 </g>
</svg>