<svg width="480" height="480" xmlns="http://www.w3.org/2000/svg" xml:space="preserve" version="1.1">

 <g>
  <title>Layer 1</title>
  <g id="svg_1">
   <g id="svg_2">
    <path fill="#ffd86e" id="svg_3" d="m278.944,17.577c-5.568,-2.656 -12.128,-1.952 -16.928,1.92l-155.648,124.512l-74.368,0c-17.632,0 -32,14.368 -32,32l0,128c0,17.632 14.368,32 32,32l74.368,0l155.616,124.512c2.912,2.304 6.464,3.488 10.016,3.488c2.368,0 4.736,-0.512 6.944,-1.568c5.536,-2.688 9.056,-8.288 9.056,-14.432l0,-416c0,-6.144 -3.52,-11.744 -9.056,-14.432zm-182.944,286.432l-64,0l0,-128l64,0l0,128zm160,110.688l-128,-102.4l0,-144.576l128,-102.4l0,349.376z"/>
   </g>
  </g>
  <g id="svg_4">
   <g id="svg_5">
    <path fill="#ffd86e" id="svg_6" d="m369.024,126.857c-6.304,-6.24 -16.416,-6.144 -22.624,0.128c-6.208,6.304 -6.144,16.416 0.128,22.624c24.16,23.904 37.472,56 37.472,90.4c0,34.4 -13.312,66.496 -37.472,90.4c-6.304,6.208 -6.368,16.32 -0.128,22.624c3.136,3.168 7.264,4.736 11.36,4.736c4.064,0 8.128,-1.536 11.264,-4.64c30.304,-29.92 46.976,-70.08 46.976,-113.12c0,-43.04 -16.672,-83.2 -46.976,-113.152z"/>
   </g>
  </g>
  <g id="svg_7">
   <g id="svg_8">
    <path fill="#ffd86e" id="svg_9" d="m414.144,81.769c-6.272,-6.208 -16.416,-6.176 -22.624,0.096c-6.208,6.272 -6.176,16.416 0.096,22.624c36.352,36.064 56.384,84.192 56.384,135.52s-20.032,99.456 -56.384,135.52c-6.272,6.208 -6.304,16.352 -0.096,22.624c3.136,3.168 7.232,4.736 11.36,4.736c4.064,0 8.128,-1.536 11.264,-4.64c42.464,-42.112 65.856,-98.304 65.856,-158.24c0,-59.936 -23.392,-116.128 -65.856,-158.24z"/>
   </g>
  </g>
  <g id="svg_10"/>
  <g id="svg_11"/>
  <g id="svg_12"/>
  <g id="svg_13"/>
  <g id="svg_14"/>
  <g id="svg_15"/>
  <g id="svg_16"/>
  <g id="svg_17"/>
  <g id="svg_18"/>
  <g id="svg_19"/>
  <g id="svg_20"/>
  <g id="svg_21"/>
  <g id="svg_22"/>
  <g id="svg_23"/>
  <g id="svg_24"/>
 </g>
</svg>